{
  "accessors": [
    {
      "bufferView": 2,
      "componentType": 5126,
      "count": 1083,
      "max": [
        297.8551330566406,
        189.16343688964844,
        235.20486450195313
      ],
      "min": [
        -33.62287139892578,
        -189.2032470703125,
        -185.6866455078125
      ],
      "type": "VEC3"
    },
    {
      "bufferView": 2,
      "byteOffset": 12996,
      "componentType": 5126,
      "count": 1083,
      "max": [
        0.999982476234436,
        0.999982476234436,
        0.9344037771224976
      ],
      "min": [
        -0.999982476234436,
        -0.999982476234436,
        -0.9965574741363525
      ],
      "type": "VEC3"
    },
    {
      "bufferView": 3,
      "componentType": 5126,
      "count": 1083,
      "max": [
        0.9999967217445374,
        0.999985933303833,
        0.9952743649482727,
        1.0
      ],
      "min": [
        -0.9999704957008362,
        -0.9999992251396179,
        -0.9942111372947693,
        1.0
      ],
      "type": "VEC4"
    },
    {
      "bufferView": 1,
      "componentType": 5126,
      "count": 1083,
      "max": [
        0.7256461977958679,
        0.9998930096626282
      ],
      "min": [
        0.00010694828233681619,
        0.00010694828233681619
      ],
      "type": "VEC2"
    },
    {
      "bufferView": 0,
      "componentType": 5125,
      "count": 5148,
      "type": "SCALAR"
    },
    {
      "bufferView": 2,
      "byteOffset": 25992,
      "componentType": 5126,
      "count": 394,
      "max": [
        206.97796630859375,
        206.97793579101563,
        28.639331817626953
      ],
      "min": [
        -206.97796630859375,
        -206.97799682617188,
        -28.639331817626953
      ],
      "type": "VEC3"
    },
    {
      "bufferView": 2,
      "byteOffset": 30720,
      "componentType": 5126,
      "count": 394,
      "max": [
        0.9951987266540527,
        0.9951987266540527,
        0.9946238398551941
      ],
      "min": [
        -0.9951987266540527,
        -0.9951987266540527,
        -0.9946238398551941
      ],
      "type": "VEC3"
    },
    {
      "bufferView": 1,
      "byteOffset": 8664,
      "componentType": 5126,
      "count": 394,
      "max": [
        0.9741789102554321,
        0.9783533811569214
      ],
      "min": [
        0.14162175357341766,
        0.008242905139923096
      ],
      "type": "VEC2"
    },
    {
      "bufferView": 0,
      "byteOffset": 20592,
      "componentType": 5125,
      "count": 1908,
      "type": "SCALAR"
    }
  ],
  "asset": {
    "extras": {
      "author": "marvelmaster (https://sketchfab.com/marvelmaster)",
      "license": "CC-BY-4.0 (http://creativecommons.org/licenses/by/4.0/)",
      "source": "https://sketchfab.com/3d-models/stool-handpainted-03e6e0abd1a34fe8906982f5e7e0a160",
      "title": "Stool - handpainted"
    },
    "generator": "Sketchfab-12.68.0",
    "version": "2.0"
  },
  "bufferViews": [
    {
      "buffer": 0,
      "byteLength": 28224,
      "name": "floatBufferViews",
      "target": 34963
    },
    {
      "buffer": 0,
      "byteLength": 11816,
      "byteOffset": 28224,
      "byteStride": 8,
      "name": "floatBufferViews",
      "target": 34962
    },
    {
      "buffer": 0,
      "byteLength": 35448,
      "byteOffset": 40040,
      "byteStride": 12,
      "name": "floatBufferViews",
      "target": 34962
    },
    {
      "buffer": 0,
      "byteLength": 17328,
      "byteOffset": 75488,
      "byteStride": 16,
      "name": "floatBufferViews",
      "target": 34962
    }
  ],
  "buffers": [
    {
      "byteLength": 92816,
      "uri": "scene.bin"
    }
  ],
  "images": [
    {
      "uri": "textures/Stool_foot_mat_baseColor.png"
    },
    {
      "uri": "textures/Stool_foot_mat_normal.png"
    },
    {
      "uri": "textures/Stool_top_mat_baseColor.png"
    }
  ],
  "materials": [
    {
      "doubleSided": true,
      "name": "Stool_foot_mat",
      "normalTexture": {
        "index": 1,
        "scale": 0.3280208587646484
      },
      "pbrMetallicRoughness": {
        "baseColorTexture": {
          "index": 0
        },
        "metallicFactor": 0.0,
        "roughnessFactor": 0.5405208587646484
      }
    },
    {
      "doubleSided": true,
      "name": "Stool_top_mat",
      "pbrMetallicRoughness": {
        "baseColorTexture": {
          "index": 2
        },
        "metallicFactor": 0.37802085876464847,
        "roughnessFactor": 0.5844791412353516
      }
    }
  ],
  "meshes": [
    {
      "name": "Cylinder.002_Stool_foot_mat_0",
      "primitives": [
        {
          "attributes": {
            "NORMAL": 1,
            "POSITION": 0,
            "TANGENT": 2,
            "TEXCOORD_0": 3
          },
          "indices": 4,
          "material": 0,
          "mode": 4
        }
      ]
    },
    {
      "name": "Cylinder_Stool_top_mat_0",
      "primitives": [
        {
          "attributes": {
            "NORMAL": 6,
            "POSITION": 5,
            "TEXCOORD_0": 7
          },
          "indices": 8,
          "material": 1,
          "mode": 4
        }
      ]
    }
  ],
  "nodes": [
    {
      "children": [
        1
      ],
      "matrix": [
        1.0,
        0.0,
        0.0,
        0.0,
        0.0,
        2.220446049250313e-16,
        -1.0,
        0.0,
        0.0,
        1.0,
        2.220446049250313e-16,
        0.0,
        0.0,
        0.0,
        0.0,
        1.0
      ],
      "name": "Sketchfab_model"
    },
    {
      "children": [
        2
      ],
      "matrix": [
        1.0,
        0.0,
        0.0,
        0.0,
        0.0,
        0.0,
        1.0,
        0.0,
        0.0,
        -1.0,
        0.0,
        0.0,
        0.0,
        0.0,
        0.0,
        1.0
      ],
      "name": "675feb2aab1043a6bb47b857dc49aae2.fbx"
    },
    {
      "children": [
        3,
        5
      ],
      "name": "RootNode"
    },
    {
      "children": [
        4
      ],
      "matrix": [
        -0.48296311819698845,
        -0.25881909898781685,
        0.8365161686785119,
        0.0,
        0.8660252627169417,
        1.0590839272239805e-07,
        0.5000002443359814,
        0.0,
        -0.12940969361339053,
        0.9659257542768744,
        0.22414381368722539,
        0.0,
        70.88272094726563,
        129.30308532714844,
        -122.74594116210938,
        1.0
      ],
      "name": "Cylinder.002"
    },
    {
      "mesh": 0,
      "name": "Cylinder.002_Stool_foot_mat_0"
    },
    {
      "children": [
        6
      ],
      "matrix": [
        1.0,
        0.0,
        0.0,
        0.0,
        0.0,
        -1.6292067939183141e-07,
        -0.9999999999999868,
        0.0,
        0.0,
        0.9999999999999868,
        -1.6292067939183141e-07,
        0.0,
        0.0,
        322.2510681152344,
        0.0,
        1.0
      ],
      "name": "Cylinder"
    },
    {
      "mesh": 1,
      "name": "Cylinder_Stool_top_mat_0"
    }
  ],
  "samplers": [
    {
      "magFilter": 9729,
      "minFilter": 9987,
      "wrapS": 10497,
      "wrapT": 10497
    }
  ],
  "scene": 0,
  "scenes": [
    {
      "name": "Sketchfab_Scene",
      "nodes": [
        0
      ]
    }
  ],
  "textures": [
    {
      "sampler": 0,
      "source": 0
    },
    {
      "sampler": 0,
      "source": 1
    },
    {
      "sampler": 0,
      "source": 2
    }
  ]
}
