{
  "accessors": [
    {
      "bufferView": 2,
      "componentType": 5126,
      "count": 788,
      "max": [
        1.0,
        0.9495190978050232,
        0.2160732001066208
      ],
      "min": [
        -0.7876263856887817,
        -0.9495190978050232,
        0.07465719431638718
      ],
      "type": "VEC3"
    },
    {
      "bufferView": 2,
      "byteOffset": 9456,
      "componentType": 5126,
      "count": 788,
      "type": "VEC3"
    },
    {
      "bufferView": 3,
      "componentType": 5126,
      "count": 788,
      "type": "VEC4"
    },
    {
      "bufferView": 1,
      "componentType": 5126,
      "count": 788,
      "type": "VEC2"
    },
    {
      "bufferView": 0,
      "componentType": 5125,
      "count": 2664,
      "type": "SCALAR"
    },
    {
      "bufferView": 2,
      "byteOffset": 18912,
      "componentType": 5126,
      "count": 7283,
      "max": [
        0.986613392829895,
        0.9331852793693542,
        0.09248597919940948
      ],
      "min": [
        -0.7675386071205139,
        -0.9331852793693542,
        -0.09790705144405365
      ],
      "type": "VEC3"
    },
    {
      "bufferView": 2,
      "byteOffset": 106308,
      "componentType": 5126,
      "count": 7283,
      "type": "VEC3"
    },
    {
      "bufferView": 3,
      "byteOffset": 12608,
      "componentType": 5126,
      "count": 7283,
      "type": "VEC4"
    },
    {
      "bufferView": 1,
      "byteOffset": 6304,
      "componentType": 5126,
      "count": 7283,
      "type": "VEC2"
    },
    {
      "bufferView": 0,
      "byteOffset": 10656,
      "componentType": 5125,
      "count": 25740,
      "type": "SCALAR"
    },
    {
      "bufferView": 2,
      "byteOffset": 193704,
      "componentType": 5126,
      "count": 684,
      "max": [
        0.9971541166305542,
        0.9971541166305542,
        4.361911296844482
      ],
      "min": [
        -0.9971541166305542,
        -0.9971541166305542,
        -1.7009259462356567
      ],
      "type": "VEC3"
    },
    {
      "bufferView": 2,
      "byteOffset": 201912,
      "componentType": 5126,
      "count": 684,
      "type": "VEC3"
    },
    {
      "bufferView": 3,
      "byteOffset": 129136,
      "componentType": 5126,
      "count": 684,
      "type": "VEC4"
    },
    {
      "bufferView": 1,
      "byteOffset": 64568,
      "componentType": 5126,
      "count": 684,
      "type": "VEC2"
    },
    {
      "bufferView": 0,
      "byteOffset": 113616,
      "componentType": 5125,
      "count": 2016,
      "type": "SCALAR"
    },
    {
      "bufferView": 2,
      "byteOffset": 210120,
      "componentType": 5126,
      "count": 402,
      "max": [
        0.5630809664726257,
        0.5142655968666077,
        0.2776021361351013
      ],
      "min": [
        -0.7318032383918762,
        -0.5142655968666077,
        -7.113336031316919e-10
      ],
      "type": "VEC3"
    },
    {
      "bufferView": 2,
      "byteOffset": 214944,
      "componentType": 5126,
      "count": 402,
      "type": "VEC3"
    },
    {
      "bufferView": 3,
      "byteOffset": 140080,
      "componentType": 5126,
      "count": 402,
      "type": "VEC4"
    },
    {
      "bufferView": 1,
      "byteOffset": 70040,
      "componentType": 5126,
      "count": 402,
      "type": "VEC2"
    },
    {
      "bufferView": 0,
      "byteOffset": 121680,
      "componentType": 5125,
      "count": 1836,
      "type": "SCALAR"
    },
    {
      "bufferView": 2,
      "byteOffset": 219768,
      "componentType": 5126,
      "count": 922,
      "max": [
        0.6676855087280273,
        0.6499302387237549,
        1.2700612545013428
      ],
      "min": [
        -0.6624860763549805,
        -0.6499302387237549,
        0.9169604182243347
      ],
      "type": "VEC3"
    },
    {
      "bufferView": 2,
      "byteOffset": 230832,
      "componentType": 5126,
      "count": 922,
      "type": "VEC3"
    },
    {
      "bufferView": 3,
      "byteOffset": 146512,
      "componentType": 5126,
      "count": 922,
      "type": "VEC4"
    },
    {
      "bufferView": 1,
      "byteOffset": 73256,
      "componentType": 5126,
      "count": 922,
      "type": "VEC2"
    },
    {
      "bufferView": 0,
      "byteOffset": 129024,
      "componentType": 5125,
      "count": 3156,
      "type": "SCALAR"
    },
    {
      "bufferView": 2,
      "byteOffset": 241896,
      "componentType": 5126,
      "count": 600,
      "max": [
        0.6499508023262024,
        0.38994988799095154,
        2.408646821975708
      ],
      "min": [
        0.35480591654777527,
        -0.38994988799095154,
        1.122058629989624
      ],
      "type": "VEC3"
    },
    {
      "bufferView": 2,
      "byteOffset": 249096,
      "componentType": 5126,
      "count": 600,
      "type": "VEC3"
    },
    {
      "bufferView": 3,
      "byteOffset": 161264,
      "componentType": 5126,
      "count": 600,
      "type": "VEC4"
    },
    {
      "bufferView": 1,
      "byteOffset": 80632,
      "componentType": 5126,
      "count": 600,
      "type": "VEC2"
    },
    {
      "bufferView": 0,
      "byteOffset": 141648,
      "componentType": 5125,
      "count": 2724,
      "type": "SCALAR"
    },
    {
      "bufferView": 2,
      "byteOffset": 256296,
      "componentType": 5126,
      "count": 240,
      "max": [
        0.6109222173690796,
        0.3015708029270172,
        0.47079017758369446
      ],
      "min": [
        0.43202799558639526,
        -0.3015708029270172,
        0.045952487736940384
      ],
      "type": "VEC3"
    },
    {
      "bufferView": 2,
      "byteOffset": 259176,
      "componentType": 5126,
      "count": 240,
      "type": "VEC3"
    },
    {
      "bufferView": 3,
      "byteOffset": 170864,
      "componentType": 5126,
      "count": 240,
      "type": "VEC4"
    },
    {
      "bufferView": 1,
      "byteOffset": 85432,
      "componentType": 5126,
      "count": 240,
      "type": "VEC2"
    },
    {
      "bufferView": 0,
      "byteOffset": 152544,
      "componentType": 5125,
      "count": 648,
      "type": "SCALAR"
    },
    {
      "bufferView": 2,
      "byteOffset": 262056,
      "componentType": 5126,
      "count": 1364,
      "max": [
        0.709357738494873,
        0.8576825261116028,
        2.0942699909210205
      ],
      "min": [
        -0.4737832546234131,
        -0.8576825261116028,
        0.9351975321769714
      ],
      "type": "VEC3"
    },
    {
      "bufferView": 2,
      "byteOffset": 278424,
      "componentType": 5126,
      "count": 1364,
      "type": "VEC3"
    },
    {
      "bufferView": 3,
      "byteOffset": 174704,
      "componentType": 5126,
      "count": 1364,
      "type": "VEC4"
    },
    {
      "bufferView": 1,
      "byteOffset": 87352,
      "componentType": 5126,
      "count": 1364,
      "type": "VEC2"
    },
    {
      "bufferView": 0,
      "byteOffset": 155136,
      "componentType": 5125,
      "count": 5280,
      "type": "SCALAR"
    },
    {
      "bufferView": 2,
      "byteOffset": 294792,
      "componentType": 5126,
      "count": 6030,
      "max": [
        0.8560670614242554,
        0.28729864954948425,
        2.632337808609009
      ],
      "min": [
        0.7066587209701538,
        -0.28729864954948425,
        1.0764561891555786
      ],
      "type": "VEC3"
    },
    {
      "bufferView": 2,
      "byteOffset": 367152,
      "componentType": 5126,
      "count": 6030,
      "type": "VEC3"
    },
    {
      "bufferView": 3,
      "byteOffset": 196528,
      "componentType": 5126,
      "count": 6030,
      "type": "VEC4"
    },
    {
      "bufferView": 1,
      "byteOffset": 98264,
      "componentType": 5126,
      "count": 6030,
      "type": "VEC2"
    },
    {
      "bufferView": 0,
      "byteOffset": 176256,
      "componentType": 5125,
      "count": 25890,
      "type": "SCALAR"
    }
  ],
  "asset": {
    "generator": "fab-model-conversion",
    "version": "2.0"
  },
  "bufferViews": [
    {
      "buffer": 0,
      "byteLength": 279816,
      "target": 34963
    },
    {
      "buffer": 0,
      "byteLength": 146504,
      "byteOffset": 279816,
      "byteStride": 8,
      "target": 34962
    },
    {
      "buffer": 0,
      "byteLength": 439512,
      "byteOffset": 426320,
      "byteStride": 12,
      "target": 34962
    },
    {
      "buffer": 0,
      "byteLength": 293008,
      "byteOffset": 865832,
      "byteStride": 16,
      "target": 34962
    }
  ],
  "buffers": [
    {
      "byteLength": 1158840,
      "uri": "scene.bin"
    }
  ],
  "images": [
    {
      "uri": "textures/Scene_-_Root_baseColor.png"
    },
    {
      "uri": "textures/Scene_-_Root_metallicRoughness.png"
    },
    {
      "uri": "textures/Scene_-_Root_normal.png"
    }
  ],
  "materials": [
    {
      "doubleSided": true,
      "name": "Scene_-_Root",
      "normalTexture": {
        "index": 2
      },
      "occlusionTexture": {
        "index": 1
      },
      "pbrMetallicRoughness": {
        "baseColorTexture": {
          "index": 0
        },
        "metallicRoughnessTexture": {
          "index": 1
        }
      }
    }
  ],
  "meshes": [
    {
      "name": "Cube__0",
      "primitives": [
        {
          "attributes": {
            "NORMAL": 1,
            "POSITION": 0,
            "TANGENT": 2,
            "TEXCOORD_0": 3
          },
          "indices": 4,
          "material": 0,
          "mode": 4
        }
      ]
    },
    {
      "name": "Circle__0",
      "primitives": [
        {
          "attributes": {
            "NORMAL": 6,
            "POSITION": 5,
            "TANGENT": 7,
            "TEXCOORD_0": 8
          },
          "indices": 9,
          "material": 0,
          "mode": 4
        }
      ]
    },
    {
      "name": "Cylinder__0",
      "primitives": [
        {
          "attributes": {
            "NORMAL": 11,
            "POSITION": 10,
            "TANGENT": 12,
            "TEXCOORD_0": 13
          },
          "indices": 14,
          "material": 0,
          "mode": 4
        }
      ]
    },
    {
      "name": "Plane__0",
      "primitives": [
        {
          "attributes": {
            "NORMAL": 16,
            "POSITION": 15,
            "TANGENT": 17,
            "TEXCOORD_0": 18
          },
          "indices": 19,
          "material": 0,
          "mode": 4
        }
      ]
    },
    {
      "name": "Plane.002__0",
      "primitives": [
        {
          "attributes": {
            "NORMAL": 21,
            "POSITION": 20,
            "TANGENT": 22,
            "TEXCOORD_0": 23
          },
          "indices": 24,
          "material": 0,
          "mode": 4
        }
      ]
    },
    {
      "name": "Plane.003__0",
      "primitives": [
        {
          "attributes": {
            "NORMAL": 26,
            "POSITION": 25,
            "TANGENT": 27,
            "TEXCOORD_0": 28
          },
          "indices": 29,
          "material": 0,
          "mode": 4
        }
      ]
    },
    {
      "name": "Plane.004__0",
      "primitives": [
        {
          "attributes": {
            "NORMAL": 31,
            "POSITION": 30,
            "TANGENT": 32,
            "TEXCOORD_0": 33
          },
          "indices": 34,
          "material": 0,
          "mode": 4
        }
      ]
    },
    {
      "name": "Plane.005__0",
      "primitives": [
        {
          "attributes": {
            "NORMAL": 36,
            "POSITION": 35,
            "TANGENT": 37,
            "TEXCOORD_0": 38
          },
          "indices": 39,
          "material": 0,
          "mode": 4
        }
      ]
    },
    {
      "name": "cable__0",
      "primitives": [
        {
          "attributes": {
            "NORMAL": 41,
            "POSITION": 40,
            "TANGENT": 42,
            "TEXCOORD_0": 43
          },
          "indices": 44,
          "material": 0,
          "mode": 4
        }
      ]
    }
  ],
  "nodes": [
    {
      "children": [
        1
      ],
      "matrix": [
        1.0,
        0.0,
        0.0,
        0.0,
        0.0,
        2.220446049250313e-16,
        -1.0,
        0.0,
        0.0,
        1.0,
        2.220446049250313e-16,
        0.0,
        0.0,
        0.0,
        0.0,
        1.0
      ],
      "name": "Sketchfab_model"
    },
    {
      "children": [
        2
      ],
      "matrix": [
        0.009999999776482582,
        0.0,
        0.0,
        0.0,
        0.0,
        0.0,
        0.009999999776482582,
        0.0,
        0.0,
        -0.009999999776482582,
        0.0,
        0.0,
        0.0,
        0.0,
        0.0,
        1.0
      ],
      "name": "officechair.fbx"
    },
    {
      "children": [
        3,
        5,
        7,
        9,
        11,
        13,
        15,
        17,
        19
      ],
      "name": "RootNode"
    },
    {
      "children": [
        4
      ],
      "matrix": [
        100.0,
        0.0,
        0.0,
        0.0,
        0.0,
        -1.629206793918314e-05,
        -99.99999999999868,
        0.0,
        0.0,
        99.99999999999868,
        -1.629206793918314e-05,
        0.0,
        0.0,
        9.790704727172852,
        0.0,
        1.0
      ],
      "name": "Cube"
    },
    {
      "mesh": 0,
      "name": "Cube__0"
    },
    {
      "children": [
        6
      ],
      "matrix": [
        100.0,
        0.0,
        0.0,
        0.0,
        0.0,
        -1.629206793918314e-05,
        -99.99999999999868,
        0.0,
        0.0,
        99.99999999999868,
        -1.629206793918314e-05,
        0.0,
        0.0,
        9.790704727172852,
        0.0,
        1.0
      ],
      "name": "Circle"
    },
    {
      "mesh": 1,
      "name": "Circle__0"
    },
    {
      "children": [
        8
      ],
      "matrix": [
        12.58653736114502,
        0.0,
        0.0,
        0.0,
        0.0,
        -2.0506072180684157e-06,
        -12.586537361144853,
        0.0,
        0.0,
        12.586537361144853,
        -2.0506072180684157e-06,
        0.0,
        0.047553107142448425,
        46.990074157714844,
        0.13065218925476074,
        1.0
      ],
      "name": "Cylinder"
    },
    {
      "mesh": 2,
      "name": "Cylinder__0"
    },
    {
      "children": [
        10
      ],
      "matrix": [
        115.28730773925781,
        0.0,
        0.0,
        0.0,
        0.0,
        -2.2063163093963392e-05,
        -135.4227294921857,
        0.0,
        0.0,
        115.28730773925629,
        -1.8782686502135026e-05,
        0.0,
        0.05239948630332947,
        105.10903930664063,
        0.1615060418844223,
        1.0
      ],
      "name": "Plane"
    },
    {
      "mesh": 3,
      "name": "Plane__0"
    },
    {
      "children": [
        12
      ],
      "matrix": [
        115.28730773925781,
        0.0,
        0.0,
        0.0,
        -0.0,
        -2.2063163093963392e-05,
        -135.4227294921857,
        0.0,
        0.0,
        115.28730773925629,
        -1.8782686502135026e-05,
        0.0,
        -0.002423195168375969,
        -5.142108917236328,
        -0.015426875092089176,
        1.0
      ],
      "name": "Plane.002"
    },
    {
      "mesh": 4,
      "name": "Plane.002__0"
    },
    {
      "children": [
        14
      ],
      "matrix": [
        133.23841857910156,
        0.0,
        0.0,
        0.0,
        -0.0,
        -2.716751799707176e-05,
        -166.75303649902122,
        0.0,
        0.0,
        133.2384185790998,
        -2.170729367600044e-05,
        0.0,
        -0.002423195168375969,
        -8.2492036819458,
        -0.015426875092089176,
        1.0
      ],
      "name": "Plane.003"
    },
    {
      "mesh": 5,
      "name": "Plane.003__0"
    },
    {
      "children": [
        16
      ],
      "matrix": [
        44.870452880859375,
        0.0,
        0.0,
        0.0,
        0.0,
        -2.2063163093963392e-05,
        -135.4227294921857,
        0.0,
        0.0,
        115.28730773925629,
        -1.8782686502135026e-05,
        0.0,
        36.464725494384766,
        105.10903930664063,
        0.1615060418844223,
        1.0
      ],
      "name": "Plane.004"
    },
    {
      "mesh": 6,
      "name": "Plane.004__0"
    },
    {
      "children": [
        18
      ],
      "matrix": [
        100.0,
        0.0,
        0.0,
        0.0,
        0.0,
        -1.629206793918314e-05,
        -99.99999999999868,
        0.0,
        0.0,
        99.99999999999868,
        -1.629206793918314e-05,
        0.0,
        0.0,
        9.790704727172852,
        0.0,
        1.0
      ],
      "name": "Plane.005"
    },
    {
      "mesh": 7,
      "name": "Plane.005__0"
    },
    {
      "children": [
        20
      ],
      "matrix": [
        100.0,
        0.0,
        0.0,
        0.0,
        0.0,
        -1.629206793918314e-05,
        -99.99999999999868,
        0.0,
        0.0,
        99.99999999999868,
        -1.629206793918314e-05,
        0.0,
        0.0,
        9.790704727172852,
        0.0,
        1.0
      ],
      "name": "cable"
    },
    {
      "mesh": 8,
      "name": "cable__0"
    }
  ],
  "samplers": [
    {
      "magFilter": 9729,
      "minFilter": 9987,
      "wrapS": 10497,
      "wrapT": 10497
    }
  ],
  "scene": 0,
  "scenes": [
    {
      "name": "Sketchfab_Scene",
      "nodes": [
        0
      ]
    }
  ],
  "textures": [
    {
      "sampler": 0,
      "source": 0
    },
    {
      "sampler": 0,
      "source": 1
    },
    {
      "sampler": 0,
      "source": 2
    }
  ]
}
